<mxfile host="drawio-plugin" modified="2024-04-16T13:54:24.365Z" agent="5.0 (X11; Linux x86_64) AppleWebKit/537.36 (KHTML, like Gecko) Chrome/122.0.0.0 Safari/537.36" version="20.5.3" etag="hOuLcnv0WIfWd-KFYDvO" type="embed"><diagram id="XHpQx3tjmUmi7cLsyPr8" name="Page-1"><mxGraphModel dx="765" dy="426" grid="1" gridSize="10" guides="1" tooltips="1" connect="1" arrows="1" fold="1" page="1" pageScale="1" pageWidth="850" pageHeight="1100" math="0" shadow="0"><root><mxCell id="0"/><mxCell id="1" parent="0"/><mxCell id="2" value="" style="rounded=0;whiteSpace=wrap;html=1;" vertex="1" parent="1"><mxGeometry x="150" y="80" width="440" height="320" as="geometry"/></mxCell><mxCell id="5" value="" style="outlineConnect=0;dashed=0;verticalLabelPosition=bottom;verticalAlign=top;align=center;html=1;shape=mxgraph.aws3.user;fillColor=#D2D3D3;gradientColor=none;" vertex="1" parent="1"><mxGeometry x="10" y="200" width="35" height="40" as="geometry"/></mxCell><mxCell id="6" value="SpringbootApp" style="rounded=0;whiteSpace=wrap;html=1;direction=south;" vertex="1" parent="1"><mxGeometry x="200" y="160" width="100" height="120" as="geometry"/></mxCell><mxCell id="7" value="Db" style="shape=cylinder3;whiteSpace=wrap;html=1;boundedLbl=1;backgroundOutline=1;size=15;" vertex="1" parent="1"><mxGeometry x="470" y="300" width="60" height="80" as="geometry"/></mxCell><mxCell id="9" value="" style="endArrow=classic;html=1;rounded=0;entryX=0;entryY=0;entryDx=0;entryDy=27.5;entryPerimeter=0;" edge="1" parent="1" source="6" target="7"><mxGeometry width="50" height="50" relative="1" as="geometry"><mxPoint x="350" y="240" as="sourcePoint"/><mxPoint x="400" y="190" as="targetPoint"/></mxGeometry></mxCell><mxCell id="10" value="Fetch Data from Db" style="text;html=1;strokeColor=none;fillColor=none;align=center;verticalAlign=middle;whiteSpace=wrap;rounded=0;" vertex="1" parent="1"><mxGeometry x="320" y="320" width="130" height="30" as="geometry"/></mxCell><mxCell id="11" value="" style="sketch=0;aspect=fixed;html=1;points=[];align=center;image;fontSize=12;image=img/lib/mscae/Cache_Redis_Product.svg;" vertex="1" parent="1"><mxGeometry x="480" y="100" width="60" height="50.4" as="geometry"/></mxCell><mxCell id="12" value="" style="endArrow=classic;html=1;rounded=0;exitX=0.383;exitY=-0.05;exitDx=0;exitDy=0;exitPerimeter=0;" edge="1" parent="1" source="6" target="11"><mxGeometry width="50" height="50" relative="1" as="geometry"><mxPoint x="350" y="230" as="sourcePoint"/><mxPoint x="400" y="180" as="targetPoint"/></mxGeometry></mxCell><mxCell id="13" value="Look In cache" style="text;html=1;strokeColor=none;fillColor=none;align=center;verticalAlign=middle;whiteSpace=wrap;rounded=0;" vertex="1" parent="1"><mxGeometry x="345" y="120.4" width="80" height="30" as="geometry"/></mxCell><mxCell id="14" value="Returned cache data" style="text;html=1;strokeColor=none;fillColor=none;align=center;verticalAlign=middle;whiteSpace=wrap;rounded=0;" vertex="1" parent="1"><mxGeometry x="360" y="180" width="160" height="30" as="geometry"/></mxCell><mxCell id="15" value="" style="endArrow=classic;html=1;rounded=0;" edge="1" parent="1" source="5" target="6"><mxGeometry width="50" height="50" relative="1" as="geometry"><mxPoint x="350" y="200" as="sourcePoint"/><mxPoint x="400" y="150" as="targetPoint"/></mxGeometry></mxCell><mxCell id="16" value="Request" style="text;html=1;strokeColor=none;fillColor=none;align=center;verticalAlign=middle;whiteSpace=wrap;rounded=0;" vertex="1" parent="1"><mxGeometry x="70" y="180" width="60" height="30" as="geometry"/></mxCell><mxCell id="17" value="devemos usar o hash map Que trabalha com concorrência." style="text;html=1;strokeColor=none;fillColor=none;align=center;verticalAlign=middle;whiteSpace=wrap;rounded=0;" vertex="1" parent="1"><mxGeometry x="600" y="70" width="150" height="130" as="geometry"/></mxCell></root></mxGraphModel></diagram></mxfile>